<svg xmlns="http://www.w3.org/2000/svg" xmlns:xlink="http://www.w3.org/1999/xlink" version="1.1" x="0px" y="0px" viewBox="0 0 100 125" fill="#E10285" enable-background="new 0 0 100 100" xml:space="preserve"><path d="M82.329,29.848l-6.337-12.059c-2.237-4.26-7.524-5.903-11.784-3.665c-1.612,0.849-2.851,2.134-3.644,3.636  c-2.338-4.004-7.443-5.506-11.583-3.329c-1.864,0.98-3.228,2.544-3.983,4.35c-0.873-0.729-1.89-1.287-3.009-1.636  c-2.227-0.692-4.588-0.477-6.65,0.608c-1.569,0.824-2.82,2.077-3.635,3.608L25.559,9.666c-2.24-4.26-7.526-5.904-11.782-3.665  c-2.064,1.084-3.582,2.907-4.274,5.133c-0.692,2.226-0.478,4.589,0.607,6.652l20.2,38.438c0.009,0.021,0.021,0.039,0.029,0.06  c-0.018-0.013-0.036-0.024-0.055-0.037l-7.77-5.233c-1.933-1.303-4.258-1.774-6.545-1.329c-2.289,0.446-4.266,1.756-5.566,3.689  c-2.689,3.989-1.63,9.424,2.359,12.112l43.332,29.187C56.416,94.891,56.789,95,57.164,95c0.305,0,0.609-0.073,0.893-0.221  l32.004-16.817c0.64-0.337,1.035-1.004,1.023-1.728C91.063,74.98,90.475,45.349,82.329,29.848z M57.286,90.857L14.903,62.313  c-2.239-1.51-2.833-4.561-1.325-6.799c0.731-1.084,1.84-1.818,3.125-2.07c1.284-0.248,2.588,0.017,3.673,0.746l7.769,5.234  c0.955,0.643,3.858,2.598,5.788,0.868c1.93-1.729,0.302-4.83-0.232-5.849l-20.2-38.439c-0.608-1.158-0.729-2.483-0.341-3.732  c0.388-1.25,1.24-2.271,2.397-2.88c2.39-1.257,5.355-0.333,6.611,2.057l16.534,31.466c0.492,0.937,1.649,1.297,2.586,0.806  c0.938-0.492,1.296-1.649,0.805-2.587l-7.031-13.382c-0.607-1.156-0.728-2.479-0.339-3.727c0.388-1.249,1.24-2.272,2.397-2.882  c1.157-0.607,2.482-0.729,3.731-0.341c1.248,0.389,2.271,1.24,2.879,2.397l8.614,16.393c0.492,0.938,1.65,1.297,2.588,0.805  c0.936-0.492,1.297-1.649,0.803-2.585l-7.028-13.38c-1.256-2.388-0.333-5.354,2.058-6.61c2.391-1.255,5.354-0.333,6.61,2.057  l8.614,16.394c0.49,0.936,1.65,1.296,2.586,0.804c0.936-0.492,1.297-1.649,0.804-2.586l-5.444-10.364  c-1.256-2.389-0.332-5.354,2.057-6.61c2.394-1.259,5.357-0.333,6.613,2.056l6.336,12.06c6.844,13.024,8.084,37.829,8.281,43.499  L57.286,90.857z"/></svg>