<svg xmlns="http://www.w3.org/2000/svg" xmlns:xlink="http://www.w3.org/1999/xlink" version="1.1" preserveAspectRatio="none" x="0px" y="0px" viewBox="0 0 100 125"><g><g transform="matrix( 1, 0, 0, 1, 0,0) "><g><g><path fill="#E10285" stroke="none" d=" M 70 22.4 Q 66.8654296875 22.428125 64.65 24.65 L 50 39.3 35.35 24.65 Q 33.1345703125 22.428125 30 22.4 26.8654296875 22.428125 24.65 24.65 22.428125 26.8654296875 22.4 30 22.428125 33.1345703125 24.65 35.35 L 39.3 50 24.65 64.65 Q 22.428125 66.8654296875 22.4 70 22.428125 73.1345703125 24.65 75.35 26.8654296875 77.571875 30 77.55 33.1345703125 77.571875 35.35 75.35 L 50 60.7 64.65 75.35 Q 66.8654296875 77.571875 70 77.55 73.1345703125 77.571875 75.35 75.35 77.571875 73.1345703125 77.55 70 77.571875 66.8654296875 75.35 64.65 L 60.7 50 75.35 35.35 Q 77.571875 33.1345703125 77.55 30 77.571875 26.8654296875 75.35 24.65 73.1345703125 22.428125 70 22.4 Z"/></g></g></g></g></svg>